<?xml version="1.0" encoding="utf-8"?>
<!-- Generator: Adobe Illustrator 16.0.0, SVG Export Plug-In . SVG Version: 6.00 Build 0)  -->
<!DOCTYPE svg PUBLIC "-//W3C//DTD SVG 1.1//EN" "http://www.w3.org/Graphics/SVG/1.1/DTD/svg11.dtd">
<svg version="1.1" id="Layer_1" xmlns="http://www.w3.org/2000/svg" xmlns:xlink="http://www.w3.org/1999/xlink" x="0px" y="0px"
	 width="119px" height="50px" viewBox="0 0 119 50" enable-background="new 0 0 119 50" xml:space="preserve">
<g>
	<g>
		<g>
			<linearGradient id="SVGID_1_" gradientUnits="userSpaceOnUse" x1="22.7656" y1="31.6504" x2="22.7656" y2="7.2383">
				<stop  offset="0" style="stop-color:#00B057"/>
				<stop  offset="0.5" style="stop-color:#005BAA"/>
			</linearGradient>
			<path fill="url(#SVGID_1_)" d="M22.334,31.65h-4.716l3.983-16.764h4.749L22.334,31.65z M24.63,12.847
				c-0.66,0-1.255-0.197-1.785-0.59c-0.531-0.393-0.797-0.993-0.797-1.801c0-0.446,0.09-0.866,0.271-1.259
				c0.18-0.393,0.418-0.733,0.717-1.02c0.297-0.287,0.643-0.515,1.035-0.686c0.393-0.169,0.812-0.254,1.26-0.254
				c0.658,0,1.253,0.196,1.784,0.59c0.531,0.393,0.798,0.993,0.798,1.8c0,0.446-0.092,0.866-0.271,1.259
				c-0.182,0.394-0.42,0.733-0.718,1.02c-0.298,0.287-0.643,0.516-1.036,0.686C25.495,12.763,25.075,12.847,24.63,12.847z"/>
			<linearGradient id="SVGID_2_" gradientUnits="userSpaceOnUse" x1="34.9478" y1="31.6504" x2="34.9478" y2="14.5049">
				<stop  offset="0" style="stop-color:#00B057"/>
				<stop  offset="0.5" style="stop-color:#005BAA"/>
			</linearGradient>
			<path fill="url(#SVGID_2_)" d="M30.493,15.652c0.361-0.106,0.76-0.229,1.195-0.367c0.436-0.138,0.924-0.265,1.467-0.382
				c0.541-0.117,1.146-0.212,1.816-0.286c0.669-0.075,1.428-0.112,2.279-0.112c2.506,0,4.227,0.722,5.162,2.167
				c0.936,1.445,1.094,3.421,0.479,5.929l-2.167,9.05h-4.749l2.104-8.859c0.127-0.553,0.229-1.09,0.303-1.61s0.069-0.977-0.016-1.37
				c-0.085-0.393-0.282-0.711-0.59-0.956c-0.309-0.244-0.781-0.367-1.419-0.367c-0.616,0-1.243,0.063-1.88,0.191L31.386,31.65
				h-4.749L30.493,15.652z"/>
			<linearGradient id="SVGID_3_" gradientUnits="userSpaceOnUse" x1="53.0425" y1="32.0957" x2="53.0425" y2="9.0547">
				<stop  offset="0" style="stop-color:#00B057"/>
				<stop  offset="0.5" style="stop-color:#005BAA"/>
			</linearGradient>
			<path fill="url(#SVGID_3_)" d="M57.584,19.922c0.892,0.426,1.582,1.079,2.071,1.961c0.489,0.881,0.732,1.844,0.732,2.884
				c0,0.871-0.18,1.741-0.541,2.612s-0.935,1.658-1.721,2.359c-0.787,0.701-1.785,1.27-2.996,1.705s-2.667,0.652-4.367,0.652
				c-2.422,0-4.6-0.498-6.533-1.497l1.722-3.761c0.615,0.425,1.381,0.77,2.294,1.035c0.914,0.268,1.85,0.398,2.805,0.398
				c0.595,0,1.174-0.062,1.737-0.19c0.562-0.128,1.056-0.339,1.481-0.638c0.424-0.297,0.766-0.68,1.02-1.147
				c0.256-0.467,0.384-1.04,0.384-1.721c0-0.87-0.356-1.529-1.068-1.975c-0.712-0.447-1.663-0.67-2.853-0.67h-2.039l0.924-3.761
				h2.294c0.446,0,0.913-0.042,1.403-0.128c0.488-0.084,0.934-0.238,1.339-0.461c0.403-0.225,0.737-0.521,1.003-0.893
				c0.266-0.372,0.398-0.855,0.398-1.451c0-0.744-0.254-1.291-0.764-1.642c-0.511-0.35-1.18-0.526-2.008-0.526
				c-0.66,0-1.387,0.117-2.186,0.351c-0.795,0.233-1.619,0.574-2.469,1.02l-1.211-3.57c1.041-0.594,2.114-1.046,3.219-1.354
				c1.105-0.308,2.252-0.462,3.442-0.462c1.126,0,2.114,0.154,2.964,0.462c0.851,0.308,1.557,0.717,2.121,1.227
				c0.562,0.51,0.981,1.089,1.258,1.737c0.275,0.649,0.415,1.312,0.415,1.993c0,0.552-0.091,1.099-0.271,1.641
				c-0.181,0.541-0.446,1.052-0.796,1.529c-0.352,0.479-0.799,0.914-1.34,1.308C58.907,19.343,58.284,19.667,57.584,19.922z"/>
			<linearGradient id="SVGID_4_" gradientUnits="userSpaceOnUse" x1="72.5957" y1="32.0957" x2="72.5957" y2="9.3408">
				<stop  offset="0" style="stop-color:#00B057"/>
				<stop  offset="0.5" style="stop-color:#005BAA"/>
			</linearGradient>
			<path fill="url(#SVGID_4_)" d="M80.69,13.133c-1.316,0.043-2.545,0.139-3.681,0.288c-1.138,0.149-2.179,0.425-3.124,0.828
				c-0.945,0.404-1.773,0.945-2.485,1.625c-0.712,0.681-1.302,1.562-1.769,2.646c0.553-0.297,1.195-0.516,1.928-0.653
				c0.733-0.138,1.419-0.207,2.056-0.207c0.786,0,1.524,0.122,2.216,0.366c0.689,0.244,1.295,0.616,1.816,1.115
				c0.52,0.5,0.93,1.121,1.227,1.865c0.297,0.743,0.446,1.604,0.446,2.582c0,1.381-0.223,2.596-0.669,3.648
				s-1.053,1.938-1.816,2.661c-0.766,0.723-1.658,1.271-2.678,1.642c-1.021,0.371-2.093,0.557-3.22,0.557
				c-0.998,0-1.923-0.169-2.772-0.509c-0.85-0.339-1.588-0.834-2.215-1.482c-0.627-0.647-1.121-1.455-1.482-2.423
				c-0.361-0.965-0.542-2.087-0.542-3.361c0-1.869,0.319-3.703,0.958-5.498c0.637-1.796,1.613-3.395,2.93-4.797
				c1.318-1.402,2.986-2.533,5.006-3.394c2.018-0.861,4.408-1.292,7.17-1.292c0.17,0,0.367,0,0.591,0
				c0.223,0,0.45,0.011,0.685,0.032L80.69,13.133z M74.795,23.907c0-1.021-0.276-1.722-0.829-2.104
				c-0.553-0.383-1.211-0.574-1.977-0.574c-0.53,0-1.067,0.069-1.608,0.207c-0.543,0.139-1.048,0.303-1.515,0.494
				c-0.276,0.808-0.414,1.637-0.414,2.486c0,1.02,0.234,1.895,0.701,2.628c0.467,0.732,1.189,1.1,2.168,1.1
				c1.02,0,1.854-0.371,2.502-1.115C74.471,26.285,74.795,25.245,74.795,23.907z"/>
			<linearGradient id="SVGID_5_" gradientUnits="userSpaceOnUse" x1="90.1406" y1="32.0957" x2="90.1406" y2="9.0547">
				<stop  offset="0" style="stop-color:#00B057"/>
				<stop  offset="0.5" style="stop-color:#005BAA"/>
			</linearGradient>
			<path fill="url(#SVGID_5_)" d="M87.447,32.096c-1.04,0-1.923-0.186-2.645-0.557c-0.724-0.371-1.313-0.865-1.769-1.482
				c-0.457-0.616-0.787-1.312-0.988-2.088c-0.203-0.774-0.303-1.577-0.303-2.406c0-2.421,0.27-4.641,0.812-6.66
				c0.541-2.02,1.295-3.761,2.264-5.227c0.965-1.466,2.129-2.603,3.489-3.411c1.358-0.807,2.868-1.211,4.524-1.211
				c1.041,0,1.924,0.187,2.646,0.558c0.722,0.372,1.312,0.866,1.769,1.482c0.457,0.616,0.786,1.312,0.988,2.086
				c0.202,0.777,0.303,1.579,0.303,2.408c0,2.422-0.271,4.643-0.813,6.66c-0.541,2.02-1.295,3.761-2.262,5.226
				c-0.967,1.467-2.131,2.604-3.49,3.411C90.612,31.693,89.104,32.096,87.447,32.096z M88.181,28.018
				c0.68,0,1.307-0.202,1.879-0.605c0.574-0.404,1.08-0.936,1.516-1.594c0.436-0.658,0.818-1.408,1.146-2.247
				c0.33-0.839,0.6-1.694,0.812-2.565s0.373-1.722,0.479-2.55c0.105-0.829,0.159-1.562,0.159-2.2c0-1.083-0.164-1.879-0.493-2.39
				c-0.33-0.51-0.834-0.765-1.514-0.765c-0.701,0-1.34,0.202-1.912,0.605c-0.574,0.404-1.084,0.936-1.531,1.594
				c-0.445,0.659-0.834,1.414-1.162,2.263c-0.33,0.85-0.602,1.711-0.813,2.581c-0.212,0.873-0.372,1.721-0.478,2.551
				c-0.107,0.828-0.16,1.561-0.16,2.198c0,1.104,0.17,1.901,0.511,2.391C86.958,27.773,87.479,28.018,88.181,28.018z"/>
			<linearGradient id="SVGID_6_" gradientUnits="userSpaceOnUse" x1="10.543" y1="37.0684" x2="10.543" y2="6.9194">
				<stop  offset="0" style="stop-color:#00B057"/>
				<stop  offset="0.5" style="stop-color:#005BAA"/>
			</linearGradient>
			<path fill="url(#SVGID_6_)" d="M7.239,34.152c0.028-0.055,0.057-0.104,0.084-0.159c0.85-1.689,1.636-4.053,2.359-7.092
				l1.943-8.126h5.578l0.955-3.889H12.55l0.191-0.828c0.212-0.893,0.601-1.636,1.164-2.231c0.562-0.595,1.428-0.892,2.598-0.892
				c0.424,0,0.887,0.047,1.386,0.143c0.499,0.095,0.94,0.239,1.323,0.43l1.594-3.729c-0.361-0.17-0.898-0.356-1.611-0.558
				c-0.711-0.202-1.545-0.303-2.501-0.303c-2.507,0-4.451,0.616-5.833,1.849C9.479,10,8.523,11.742,7.993,13.995L4.678,27.89
				c-0.171,0.744-0.388,1.546-0.653,2.406S3.44,32.002,3.068,32.83s-0.792,1.613-1.259,2.358c-0.467,0.743-0.977,1.37-1.529,1.88
				l0,0C2.466,37.068,5.71,36.85,7.239,34.152z"/>
		</g>
	</g>
	<g>
		<path fill="#00B057" d="M97.715,1.092c4.442-0.816,8.321-0.091,10.828,2.416c0.87,0.871,1.522,1.911,1.973,3.079
			c0.967-1.076,1.946-2.233,2.88-3.445C109.827-0.277,104.08-0.817,97.715,1.092z"/>
		<path fill="#00B057" d="M115.153,4.569c-3.859,7.157-11.972,13.832-11.972,13.832c2.47,0.184,4.568,0.459,6.354,0.782
			c-1.836,4.647-5.07,9.563-9.506,13.999C89.486,43.726,76.2,47.536,70.356,41.693c-2.506-2.507-3.231-6.385-2.416-10.825
			c-1.938,6.457-1.357,12.282,2.197,15.837c6.846,6.847,22.114,2.678,34.104-9.312c5.269-5.27,9.024-11.171,11.001-16.712
			c2.533,0.943,3.41,1.792,3.41,1.792C119.286,14.419,115.153,4.569,115.153,4.569z"/>
	</g>
</g>
</svg>
