<?xml version="1.0" encoding="utf-8"?>
<!-- Generator: Adobe Illustrator 22.1.0, SVG Export Plug-In . SVG Version: 6.00 Build 0)  -->
<svg version="1.1" id="Capa_1" xmlns="http://www.w3.org/2000/svg" xmlns:xlink="http://www.w3.org/1999/xlink" x="0px" y="0px"
	 viewBox="0 0 331 88" style="enable-background:new 0 0 331 88;" xml:space="preserve">
<style type="text/css">
	.st0{opacity:0.5;fill:url(#SVGID_1_);}
	.st1{fill:url(#SVGID_2_);}
	.st2{fill:#2A3844;}
</style>
<g>
	<linearGradient id="SVGID_1_" gradientUnits="userSpaceOnUse" x1="37.334" y1="44.004" x2="4.2734" y2="63.0915">
		<stop  offset="0" style="stop-color:#FF5025"/>
		<stop  offset="1" style="stop-color:#FF006B"/>
	</linearGradient>
	<path class="st0" d="M20.6,15.2v39.3c0,0.9,0.5,1.8,1.3,2.3L36.3,65c0.8,0.5,1.3,1.3,1.3,2.3v15.8c0,0.5-0.5,0.8-1,0.6L7.1,66.6
		c-1.5-0.9-2.5-2.5-2.5-4.3V26.1c0-1.8,0.9-3.4,2.5-4.3l12.6-7.3C20,14.4,20.6,14.7,20.6,15.2z"/>
	<linearGradient id="SVGID_2_" gradientUnits="userSpaceOnUse" x1="26.3196" y1="52.6066" x2="76.4573" y2="23.6596">
		<stop  offset="0" style="stop-color:#FF5025"/>
		<stop  offset="1" style="stop-color:#FF006B"/>
	</linearGradient>
	<path class="st1" d="M27,11.8l0,38.8c0,0.9,0.5,1.8,1.3,2.3l14.4,8.3c0.8,0.5,1.3,1.3,1.3,2.3v19.6c0,0.5,0.5,0.8,1,0.6l29.6-17.1
		c1.5-0.9,2.5-2.5,2.5-4.3V26.1c0-1.8-0.9-3.4-2.5-4.3L43.3,3.8c-1.5-0.9-3.4-0.9-4.9,0L28.3,9.6C27.5,10,27,10.9,27,11.8z"/>
	<g>
		<path class="st2" d="M114.1,70c-1.1-1.1-1.7-2.6-1.7-4.4V15.7c0-0.8,0.6-1.4,1.4-1.4h4.9c0.8,0,1.4,0.6,1.4,1.4v49H146
			c0.8,0,1.4,0.6,1.4,1.4v4.1c0,0.8-0.6,1.4-1.4,1.4h-27.3C116.7,71.7,115.2,71.1,114.1,70z"/>
		<path class="st2" d="M156.3,68.3c-2.9-2.8-4.4-6.4-4.4-10.9V46.1c0-4.8,1.5-8.7,4.4-11.6c2.9-2.9,6.8-4.3,11.6-4.3h6.7
			c4.6,0,8.4,1.4,11.2,4.3c2.8,2.8,4.3,6.6,4.3,11.3v4.1c0,2-1.6,3.6-3.6,3.6h-27v3.9c0,2.5,0.8,4.5,2.3,6.1
			c1.5,1.5,3.5,2.3,6.1,2.3h6.3c2.5,0,4.5-0.6,6-1.9c1.2-1,1.9-2.2,2.2-3.6c0.2-0.9,0.9-1.5,1.8-1.5h3.8c1.1,0,2,1,1.9,2.1
			c-0.4,3.1-1.8,5.7-4.2,7.8c-2.9,2.5-6.7,3.8-11.5,3.8h-6.2C163.1,72.4,159.2,71,156.3,68.3z M182.5,47.4v-1.6
			c0-2.7-0.7-4.9-2.2-6.6c-1.4-1.6-3.3-2.5-5.7-2.5h-6.7c-2.5,0-4.5,0.9-6.1,2.6c-1.5,1.7-2.3,4-2.3,6.8v1.2H182.5z"/>
		<path class="st2" d="M205.6,68.8c-2-2-3-5.1-3-9.5V37.5h-6.2c-0.6,0-1-0.5-1-1v-4.5c0-0.6,0.5-1,1-1h6.2V19.6c0-0.6,0.5-1,1-1h5.4
			c0.6,0,1,0.5,1,1v11.3h9.6c0.6,0,1,0.5,1,1v4.5c0,0.6-0.5,1-1,1h-9.6v21.6c0,2.1,0.4,3.7,1.3,4.6c0.8,0.9,2.2,1.4,4.1,1.4h4.2
			c0.6,0,1,0.5,1,1v5.6h-5.6C210.8,71.8,207.6,70.8,205.6,68.8z"/>
		<path class="st2" d="M230,24c-1-1-1.5-2.2-1.5-3.7c0-1.5,0.5-2.8,1.5-3.7c1-1,2.3-1.4,3.9-1.4c1.6,0,2.9,0.5,3.8,1.4
			c1,1,1.4,2.2,1.4,3.7c0,1.5-0.5,2.8-1.4,3.7c-1,1-2.2,1.4-3.8,1.4C232.3,25.5,231,25,230,24z M231.2,30.9h5.3
			c0.6,0,1.1,0.5,1.1,1.1v38.6c0,0.6-0.5,1.1-1.1,1.1h-5.3c-0.6,0-1.1-0.5-1.1-1.1V32C230,31.4,230.5,30.9,231.2,30.9z"/>
		<path class="st2" d="M250.4,68.2c-2.9-2.8-4.3-6.5-4.3-11.1v-11c0-4.8,1.4-8.7,4.3-11.6c2.9-2.9,6.6-4.3,11.3-4.3h6.6
			c4.5,0,8.1,1.3,10.8,3.8c2.5,2.3,3.8,5.2,4.1,8.8c0,0.6-0.5,1.2-1.1,1.2h-5.3c-0.6,0-1-0.4-1.1-1c-0.2-1.7-0.8-3.1-2-4.1
			c-1.3-1.3-3.1-1.9-5.4-1.9h-6.6c-2.4,0-4.4,0.9-5.9,2.6c-1.5,1.7-2.3,4-2.3,6.8v10.5c0,2.7,0.8,4.8,2.3,6.4
			c1.5,1.6,3.5,2.4,5.9,2.4h6.6c2.3,0,4.1-0.8,5.5-2.4c1.2-1.4,1.9-3.2,2.1-5.4c0-0.6,0.5-1,1.1-1h5.3c0.6,0,1.1,0.5,1.1,1.2
			c-0.2,4.1-1.6,7.5-4.1,10.1c-2.8,2.9-6.4,4.3-11,4.3h-6.6C257.1,72.4,253.3,71,250.4,68.2z"/>
		<path class="st2" d="M293.7,69.3c-2.5-2.1-3.7-4.9-3.7-8.4v-2.7c0-3.4,1.3-6.2,3.9-8.3c2.6-2.1,5.9-3.2,10.1-3.2h5.2
			c1.6,0,3.4,0.2,5.2,0.7c1.9,0.5,3.4,1.2,4.8,2v-6c0-2-0.6-3.6-1.9-4.9c-1.3-1.2-2.9-1.8-4.9-1.8h-6.7c-2.1,0-3.7,0.5-5,1.5
			c-1,0.8-1.6,1.8-1.8,3c-0.1,0.5-0.5,0.9-1,0.9l-5.5,0c-0.6,0-1.1-0.5-1-1.1c0.3-3,1.6-5.5,3.9-7.5c2.6-2.2,6.1-3.3,10.4-3.3h6.7
			c4.3,0,7.8,1.2,10.4,3.6c2.6,2.4,3.9,5.6,3.9,9.6v28.3h-5.4c-1,0-1.7-0.8-1.7-1.7v-3.7c-1.3,1.9-2.9,3.3-4.9,4.5
			c-2,1.1-4.1,1.7-6.1,1.7h-4.9C299.4,72.4,296.1,71.4,293.7,69.3z M308.8,66.1c2.4,0,4.5-0.7,6.4-2.1c1.9-1.4,3.1-3.3,3.9-5.6V56
			c-1-0.9-2.5-1.7-4.3-2.2c-1.8-0.5-3.7-0.8-5.6-0.8H304c-1.9,0-3.5,0.5-4.7,1.5c-1.2,1-1.8,2.3-1.8,3.9v2.5c0,1.6,0.6,2.9,1.8,3.9
			c1.2,1,2.7,1.4,4.7,1.4H308.8z"/>
	</g>
</g>
</svg>
